<svg width="375" height="375" viewBox="0 0 300 300" xmlns="http://www.w3.org/2000/svg">
    <circle cx="150" cy="150" r="120" stroke="#C41E3A" stroke-width="3" fill="none" opacity="0.3"/>
    <g opacity="0.9">
        <path d="M150 50 L190 120 L170 115 L170 160 L130 160 L130 115 L110 120 Z" fill="#C41E3A"/>
        <path d="M225 225 L155 195 L160 175 L115 175 L115 215 L160 215 L155 235 Z" fill="#C41E3A"/>
        <path d="M75 225 L145 195 L140 175 L185 175 L185 215 L140 215 L145 235 Z" fill="#C41E3A"/>
    </g>
    <circle cx="150" cy="150" r="30" fill="#C41E3A" opacity="0.8"/>
    <path d="M142 142 L148 142 L152 148 L158 148 L158 152 L152 152 L148 158 L142 158 L142 152 L148 152 L152 148 L148 148 Z" fill="white" opacity="0.9"/>
    <g opacity="0.6">
        <circle cx="80" cy="80" r="3" fill="#DC3545"/>
        <circle cx="220" cy="100" r="2" fill="#E74C3C"/>
        <circle cx="70" cy="180" r="2.5" fill="#C41E3A"/>
        <circle cx="230" cy="200" r="2" fill="#DC3545"/>
        <circle cx="120" cy="60" r="2" fill="#E74C3C"/>
        <circle cx="180" cy="240" r="3" fill="#C41E3A"/>
    </g>
    <text x="150" y="280" text-anchor="middle" fill="#C41E3A" font-family="Arial, sans-serif" font-size="12" opacity="0.7">Sustainable Recycling</text>
</svg>